<svg width="30" height="30" viewBox="0 0 30 30" fill="none" xmlns="http://www.w3.org/2000/svg">
<rect opacity="0.8" width="30" height="30" rx="4" fill="#18191A"/>
<g clip-path="url(#clip0_779_693)">
<path d="M20.0979 10.0762C19.7158 10.0229 19.2767 10 18.6589 10H11.3418C10.732 10 10.2849 10.0229 9.92716 10.0686C7.20358 10.3505 6.66699 11.8667 6.66699 14.381V18.9524C6.66699 21.4667 7.20358 22.9829 9.90276 23.2571C10.2849 23.3105 10.7239 23.3333 11.3418 23.3333H18.6589C19.2686 23.3333 19.7158 23.3105 20.0735 23.2648C22.7971 22.9829 23.3337 21.4743 23.3337 18.9524V14.381C23.3337 11.8667 22.7971 10.3505 20.0979 10.0762ZM13.4475 14.381C13.9028 14.381 14.2686 14.7238 14.2686 15.1429C14.2686 15.5619 13.9028 15.9048 13.4556 15.9048C13.0085 15.9048 12.6426 15.5619 12.6426 15.1429C12.6426 14.7238 13.0003 14.381 13.4475 14.381ZM11.0085 14.381C11.4719 14.381 11.8296 14.7238 11.8296 15.1429C11.8296 15.5619 11.4637 15.9048 11.0166 15.9048C10.5694 15.9048 10.2036 15.5619 10.2036 15.1429C10.2036 14.7238 10.5613 14.381 11.0085 14.381ZM19.0654 19.9048H10.9515C10.6182 19.9048 10.3337 19.6457 10.3337 19.3333C10.3337 19.021 10.602 18.7619 10.9353 18.7619H19.0654C19.3987 18.7619 19.6751 19.021 19.6751 19.3333C19.6751 19.6457 19.3987 19.9048 19.0654 19.9048ZM19.0654 15.7143H16.2198C15.8865 15.7143 15.6101 15.4552 15.6101 15.1429C15.6101 14.8305 15.8865 14.5714 16.2198 14.5714H19.0654C19.3987 14.5714 19.6751 14.8305 19.6751 15.1429C19.6751 15.4552 19.3987 15.7143 19.0654 15.7143Z" fill="white"/>
<path d="M15.8421 6.66667L15.8337 7.50834C15.8254 7.96667 15.4587 8.33334 15.0004 8.33334H14.9754C14.5171 8.33334 14.1504 8.70834 14.1504 9.16667C14.1504 9.62501 14.5254 10 14.9837 10H15.8171" stroke="white" stroke-width="1.5" stroke-linecap="round" stroke-linejoin="round"/>
</g>
<defs>
<clipPath id="clip0_779_693">
<rect width="20" height="20" fill="white" transform="translate(5 5)"/>
</clipPath>
</defs>
</svg>
