<svg width="35" height="40" viewBox="0 0 35 40" fill="none" xmlns="http://www.w3.org/2000/svg">
<g clip-path="url(#clip0_660_14069)">
<mask id="mask0_660_14069" style="mask-type:luminance" maskUnits="userSpaceOnUse" x="-16" y="-9" width="66" height="58">
<path d="M-15.0371 -8.09267H49.8611V48.0751H-15.0371V-8.09267Z" fill="white"/>
</mask>
<g mask="url(#mask0_660_14069)">
<path fill-rule="evenodd" clip-rule="evenodd" d="M31.8216 -2.28882e-05H3.17843C0.856801 -2.28882e-05 0 0.843822 0 3.1314V30.7346C0 30.9935 0.0105996 31.234 0.0338188 31.4567C0.0382244 31.4984 0.0423319 31.5399 0.0464335 31.5813L0.0464349 31.5813C0.0915413 32.0372 0.135933 32.4858 0.568148 32.9908C0.614226 33.0448 1.09563 33.3976 1.09563 33.3976C1.14209 33.42 1.1859 33.4414 1.22821 33.4621L1.22822 33.4621C1.42173 33.5565 1.58378 33.6356 1.82342 33.7305L15.9277 39.5504C16.6599 39.881 16.9661 40.0098 17.4979 39.9994V39.9995H17.5H17.502V39.9994C18.0339 40.0098 18.34 39.881 19.0723 39.5504L33.1765 33.7305C33.4159 33.6357 33.5778 33.5567 33.771 33.4624C33.8136 33.4417 33.8576 33.4202 33.9044 33.3976C33.9044 33.3976 34.3858 33.0448 34.4318 32.9908C34.864 32.4858 34.9084 32.0372 34.9535 31.5813C34.9576 31.5399 34.9617 31.4984 34.9661 31.4567C34.9893 31.234 35 30.9935 35 30.7346V3.1314C35 0.843822 34.1431 -2.28882e-05 31.8216 -2.28882e-05ZM29.9031 27.7514L29.8966 27.8151L29.8902 27.885L29.8772 27.9487L29.8579 28.0124L29.8454 28.0697L29.8259 28.1334L29.8001 28.1907L29.7742 28.2417L29.7487 28.2989L29.7164 28.3499L29.6841 28.4009L29.6457 28.4518L29.6133 28.5027L29.5749 28.5472L29.5297 28.5918L29.4912 28.63L29.4396 28.6746L29.3947 28.7128L29.343 28.751L29.2916 28.7824L29.2403 28.8206L29.1821 28.8525L29.1243 28.878L29.0665 28.9098L29.0018 28.9353L28.9376 28.9608L28.8733 28.9798L28.8091 28.999L28.7509 29.018L28.6866 29.0308L28.6288 29.0435L28.571 29.0562L28.5064 29.069L28.442 29.0753L28.3843 29.0817L28.3196 29.0881L28.2489 29.0945L28.1846 29.1008H28.1204H28.0496H27.9785H27.9143L27.85 29.0945H27.7793L27.715 29.0881L27.6504 29.0817L27.5796 29.0753L27.5154 29.0626L27.4511 29.0562L27.3864 29.0435L27.3221 29.0308L27.2579 29.018L27.1936 29.0053L27.129 28.9863L27.0712 28.9735L27.0069 28.9544L26.9426 28.9353L26.8845 28.9098L26.8202 28.8907L26.7624 28.8716L26.6981 28.8461L26.64 28.8206L26.5821 28.7951L26.5243 28.7638L26.4662 28.7383L26.4083 28.7064L26.357 28.6746L26.2988 28.6427L26.2475 28.6109L26.1958 28.5791L26.1444 28.5409L26.0931 28.5027L26.0414 28.4645L25.99 28.4263L25.9448 28.3881L25.8934 28.3435L25.9322 28.2926L25.9771 28.248L26.0159 28.197L26.0608 28.1461L26.0996 28.1016L26.1379 28.0507L26.1832 27.9997L26.2216 27.9551L26.2669 27.9042L26.3053 27.8596L26.3505 27.8087L26.389 27.7577L26.4277 27.7132L26.4726 27.6623L26.5114 27.6113L26.5562 27.5667L26.595 27.5158L26.6464 27.554L26.7042 27.5922L26.7559 27.6304L26.8137 27.6686L26.8654 27.7005L26.9233 27.7386L26.9745 27.7705L27.0328 27.7959L27.0841 27.8278L27.1419 27.8533L27.2001 27.8787L27.2579 27.9042L27.3158 27.9233L27.3739 27.9487L27.4381 27.9678L27.5025 27.987L27.5602 28.0061L27.6249 28.0188L27.6891 28.0316L27.7534 28.0443L27.8241 28.0507L27.8887 28.0634H27.9531L28.0237 28.0697H28.0881H28.1652L28.236 28.0634L28.3006 28.0507L28.3584 28.0379L28.4162 28.0252L28.4679 28.0061L28.5129 27.9806L28.5646 27.9424L28.6029 27.8978L28.6288 27.8468L28.6483 27.7896L28.6546 27.7259V27.7132L28.6483 27.6368L28.6224 27.5731L28.59 27.5285L28.5452 27.4903L28.4934 27.4521L28.442 27.4267L28.3843 27.4012L28.3196 27.3757L28.2424 27.344L28.1975 27.3312L28.1462 27.3185L28.0881 27.2993L28.0302 27.2866L27.966 27.2675L27.9013 27.2548L27.8306 27.2356L27.7663 27.2229L27.6956 27.2038L27.6313 27.1911L27.5666 27.172L27.5025 27.1592L27.4381 27.1401L27.3799 27.1211L27.3158 27.1083L27.2579 27.0892L27.2001 27.0701L27.1419 27.051L27.0712 27.0255L27.0069 27L26.9426 26.9746L26.878 26.9491L26.8202 26.9173L26.7559 26.8855L26.7042 26.8536L26.6464 26.8218L26.595 26.7836L26.5433 26.7518L26.4985 26.7135L26.4533 26.669L26.4083 26.6244L26.3696 26.5798L26.3312 26.5353L26.2988 26.4907L26.2669 26.4397L26.2346 26.3825L26.2087 26.3383L26.1893 26.2873L26.1703 26.23L26.1509 26.1791L26.1379 26.1154L26.125 26.0581L26.1185 25.9945L26.1121 25.9308L26.1056 25.8608V25.7907V25.778V25.7143L26.1121 25.6507L26.1185 25.5933L26.125 25.5296L26.1379 25.4724L26.1509 25.4151L26.1703 25.3577L26.1832 25.3005L26.2087 25.2431L26.2346 25.1858L26.2604 25.1286L26.2924 25.0712L26.3246 25.014L26.3631 24.963L26.4019 24.9121L26.4468 24.8611L26.492 24.8166L26.5369 24.7656L26.5886 24.721L26.6335 24.6892L26.6852 24.651L26.7366 24.6128L26.7879 24.581L26.8461 24.5492L26.9039 24.5237L26.9616 24.4918L27.0198 24.4664L27.0841 24.4472L27.1483 24.4218L27.2065 24.4027L27.2579 24.3899L27.3158 24.3772L27.3739 24.3645L27.4381 24.3518L27.496 24.339L27.5602 24.3327L27.6249 24.3263L27.6891 24.3199L27.7534 24.3136H27.8176H27.8887H27.9596H28.0302L28.101 24.3199L28.1717 24.3263H28.236L28.3071 24.3327L28.3713 24.3454L28.442 24.3518L28.5064 24.3645L28.5646 24.3772L28.6288 24.3899L28.6931 24.4027L28.7509 24.4154L28.8155 24.4345L28.8733 24.4536L28.9312 24.4664L28.9958 24.4918L29.0536 24.5109L29.1114 24.5364L29.1692 24.5619L29.2338 24.5874L29.2916 24.6192L29.343 24.6447L29.4012 24.6765L29.459 24.7083L29.5103 24.7402L29.5685 24.7784L29.6199 24.8101L29.6716 24.8484L29.7229 24.8866L29.7742 24.9248L29.7358 24.9758L29.7035 25.0267L29.6651 25.0776L29.6263 25.1286L29.5879 25.1858L29.5556 25.2368L29.5168 25.2877L29.4783 25.3387L29.4461 25.3896L29.4076 25.4406L29.3689 25.4915L29.3365 25.5424L29.2981 25.5997L29.2593 25.6507L29.2209 25.7016L29.1886 25.7525L29.1502 25.8034L29.0985 25.7653L29.0407 25.7334L28.9893 25.7016L28.9376 25.6634L28.8798 25.6379L28.828 25.6061L28.7703 25.5806L28.7189 25.5551L28.6607 25.5296L28.6094 25.5042L28.5516 25.4851L28.4999 25.4596L28.4291 25.4406L28.3649 25.4214L28.3006 25.4024L28.236 25.3896L28.1717 25.3769L28.1075 25.3641L28.0432 25.3577L27.9785 25.3514L27.9208 25.345H27.8564H27.7793L27.7085 25.3577L27.6439 25.3705L27.5861 25.3832L27.5348 25.4087L27.4895 25.4341L27.4317 25.4851L27.3929 25.5424L27.3675 25.5997L27.3609 25.6634V25.6762L27.3675 25.7589L27.3993 25.8289L27.4252 25.8671L27.4701 25.9117L27.5283 25.9435L27.5796 25.9754L27.6439 26.0008L27.715 26.0263L27.7922 26.0518L27.8435 26.0645L27.8949 26.0836L27.9531 26.0963L28.0108 26.1154L28.0751 26.1282L28.1462 26.1473L28.217 26.1663L28.2877 26.1855L28.3584 26.1982L28.4226 26.2173L28.4934 26.2364L28.5581 26.2491L28.6224 26.2682L28.6866 26.2873L28.7444 26.3064L28.8091 26.3255L28.8669 26.3446L28.9247 26.3638L28.9958 26.3888L29.06 26.4207L29.1243 26.4461L29.1886 26.478L29.2468 26.5098L29.3046 26.5417L29.3559 26.5735L29.4076 26.6117L29.459 26.6435L29.5103 26.6881L29.562 26.7326L29.6069 26.7836L29.6521 26.8281L29.6905 26.8791L29.7293 26.9364L29.7613 26.9873L29.7937 27.0447L29.8195 27.0956L29.8389 27.1528L29.8579 27.2102L29.8708 27.2675L29.8837 27.3312L29.8966 27.3949L29.9031 27.4585L29.9096 27.5285V27.5986V27.6113V27.6814L29.9031 27.7514ZM25.3895 29.0245H25.3249H25.2607H25.1964H25.1322H25.0675H25.0032H24.939H24.8747H24.8036H24.7393H24.6751H24.6108H24.5461H24.4819H24.4176H24.3533H24.2886H24.2244H24.1601H24.0959H24.0316H23.9669H23.9027H23.8384H23.7741H23.7094H23.6452H23.5809H23.5102H23.4456H23.3813H23.317H23.2528H23.1882H23.1238H23.0596H22.9953H22.9307H22.8664H22.8022H22.7378H22.6732H22.609H22.5447H22.4804H22.4158H22.3515H22.2807H22.2165H22.1522H22.0876H22.0233H21.959H21.8948H21.8302H21.7659H21.7016V28.9608V28.8971V28.8334V28.7701V28.7064V28.6427V28.5791V28.5155V28.4518V28.3881V28.3244V28.2607V28.197V28.1334V28.0697V28.0061V27.9424V27.8787V27.8214V27.7577V27.6941V27.6304V27.5667V27.503V27.4394V27.3757V27.312V27.2484V27.1847V27.1211V27.0574V26.9937V26.9301V26.8664V26.8026V26.739V26.6753V26.6117V26.548V26.4843V26.4207V26.3574V26.2937V26.23V26.1663V26.1027V26.0391V25.9754V25.9117V25.848V25.7843V25.7207V25.657V25.5933V25.536V25.4724V25.4087V25.345V25.2814V25.2177V25.154V25.0903V25.0267V24.963V24.8993V24.8356V24.7719V24.7083V24.6447V24.581V24.5173V24.4536V24.3899H21.7659H21.8302H21.8948H21.959H22.0233H22.0876H22.1522H22.2165H22.2807H22.3451H22.4097H22.474H22.5382H22.6025H22.6606H22.7249H22.7892H22.8535H22.9181H22.9824H23.0466H23.1109H23.1756H23.2398H23.304H23.3684H23.4331H23.4973H23.5616H23.6258H23.6905H23.7548H23.819H23.8832H23.9475H24.0122H24.0765H24.1407H24.205H24.2697H24.3339H24.3982H24.4624H24.5207H24.5849H24.6492H24.7135H24.7781H24.8424H24.9066H24.9709H25.0355H25.0998H25.164H25.2284H25.293H25.3573H25.4215V24.4536V24.5109V24.5746V24.6383V24.7019V24.7592V24.8229V24.8866V24.9439V25.0076V25.0712V25.1286V25.1922V25.2559V25.3196V25.3769V25.4406H25.3573H25.293H25.2284H25.164H25.0998H25.0355H24.9773H24.9131H24.8488H24.7845H24.7199H24.6557H24.5913H24.5271H24.4624H24.3982H24.3339H24.2697H24.205H24.1472H24.0829H24.0187H23.954H23.8898H23.8255H23.7612H23.6965H23.6323H23.568H23.5038H23.4391H23.3748H23.317H23.2528H23.1882H23.1238H23.0596H22.9953H22.9307V25.5042V25.5678V25.6315V25.6952V25.7589V25.8162V25.8798V25.9435V26.0072V26.0709V26.1345V26.1982H22.9953H23.0596H23.1238H23.1882H23.2528H23.317H23.3813H23.4456H23.5038H23.568H23.6323H23.6965H23.7612H23.8255H23.8898H23.954H24.0187H24.0829H24.1472H24.2115H24.2761H24.3403H24.4046H24.469H24.5336H24.5978H24.6557H24.7199H24.7845H24.8488H24.9131H24.9773H25.042H25.1063H25.1705V26.2618V26.3192V26.3825V26.4461V26.5034V26.5671V26.6308V26.6881V26.7518V26.8154V26.8791V26.9364V27V27.0637V27.1211V27.1847H25.1063H25.042H24.9773H24.9131H24.8488H24.7845H24.7199H24.6557H24.5978H24.5336H24.469H24.4046H24.3403H24.2761H24.2115H24.1472H24.0829H24.0187H23.954H23.8898H23.8255H23.7612H23.6965H23.6323H23.568H23.5038H23.4456H23.3813H23.317H23.2528H23.1882H23.1238H23.0596H22.9953H22.9307V27.2484V27.3185V27.3821V27.4458V27.5158V27.5795V27.6432V27.7132V27.7768V27.8405V27.9105V27.9742H22.9953H23.0596H23.1238H23.1882H23.2528H23.317H23.3813H23.4456H23.5102H23.5809H23.6452H23.7094H23.7741H23.8384H23.9027H23.9669H24.0316H24.0959H24.1601H24.2244H24.2886H24.3533H24.4176H24.4819H24.5461H24.6108H24.6751H24.7393H24.8036H24.8747H24.939H25.0032H25.0675H25.1322H25.1964H25.2607H25.3249H25.3895H25.4538V28.0379V28.0952V28.1589V28.2225V28.2862V28.3435V28.4072V28.4708V28.5282V28.5918V28.6555V28.7128V28.7761V28.8397V28.9034V28.9608V29.0245H25.3895ZM20.687 29.0245H20.6227H20.5584H20.4874H20.4231H20.3588H20.2946H20.2299H20.1656H20.0949H20.0307H19.9663H19.9017H19.8375H19.7732H19.7025H19.6378H19.5736H19.5092V28.9608V28.8971V28.8334V28.7697V28.7057V28.642V28.5783V28.5146V28.451V28.3874V28.3237V28.2597V28.196V28.1323V28.0686V28.0049V27.9409V27.8772V27.8135V27.7499V27.6862V27.6226V27.5585V27.4949V27.4312V27.3675V27.3038V27.2401V27.1761V27.1124V27.0487V26.9851V26.9215V26.8578V26.7937V26.7301V26.6664V26.6027V26.539V26.475V26.4113V26.3476V26.2839L19.477 26.3348L19.4386 26.3926L19.4062 26.4435L19.3678 26.4945L19.3355 26.5517L19.2967 26.6027L19.2648 26.6537L19.2324 26.7113L19.194 26.7622L19.1617 26.8132L19.1229 26.8641L19.091 26.9218L19.0522 26.9727L19.0203 27.0237L18.9879 27.081L18.9491 27.1322L18.9171 27.1832L18.8783 27.2405L18.8465 27.2915L18.8077 27.3424L18.7757 27.4001L18.7434 27.451L18.7046 27.502L18.6727 27.5593L18.6339 27.6106L18.602 27.6615L18.5632 27.7125L18.5308 27.7697L18.4988 27.821L18.4601 27.872L18.4282 27.9293L18.3894 27.9802L18.3571 28.0311L18.3186 28.0889L18.2863 28.1398H18.2608L18.2221 28.0825L18.1897 28.0311L18.1513 27.9738L18.119 27.9229L18.0805 27.8657L18.0482 27.8143L18.0099 27.757L17.9775 27.706L17.9387 27.6488L17.9067 27.5978L17.868 27.5401L17.8361 27.4892L17.7973 27.4319L17.7649 27.381L17.7265 27.3233L17.6942 27.2724L17.6558 27.2151L17.617 27.1641L17.5847 27.1065L17.5463 27.0555L17.514 26.9982L17.4755 26.9473L17.4432 26.8896L17.4048 26.8387L17.3725 26.7813L17.3337 26.7304L17.3018 26.6731L17.263 26.6218L17.231 26.5645L17.1922 26.5135L17.1599 26.4562L17.1216 26.4054L17.0891 26.3476L17.0507 26.2967V26.3603V26.424V26.4878V26.5517V26.6154V26.6791V26.7428V26.8065V26.8705V26.9342V26.9915V27.0551V27.1188V27.1825V27.2465V27.3102V27.3738V27.4375V27.5012V27.5649V27.6289V27.6926V27.7563V27.8199V27.8836V27.9473V28.0113V28.0749V28.1386V28.2023V28.266V28.33V28.3874V28.451V28.5146V28.5783V28.642V28.7057V28.7697V28.8334V28.8971V28.9608V29.0245H16.9865H16.9219H16.8576H16.7933H16.7291H16.6645H16.6001H16.5359H16.4716H16.407H16.3427H16.2784H16.2141H16.1495H16.0853H16.021H15.9566H15.892H15.8278V28.9608V28.8971V28.8334V28.7701V28.7064V28.6427V28.5791V28.5155V28.4518V28.3881V28.3244V28.2607V28.197V28.1334V28.0697V28.0061V27.9424V27.8787V27.8214V27.7577V27.6941V27.6304V27.5667V27.503V27.4394V27.3757V27.312V27.2484V27.1847V27.1211V27.0574V26.9937V26.9301V26.8664V26.8026V26.739V26.6753V26.6117V26.548V26.4843V26.4207V26.3574V26.2937V26.23V26.1663V26.1027V26.0391V25.9754V25.9117V25.848V25.7843V25.7207V25.657V25.5933V25.536V25.4724V25.4087V25.345V25.2814V25.2177V25.154V25.0903V25.0267V24.963V24.8993V24.8356V24.7719V24.7083V24.6447V24.581V24.5173V24.4536V24.3899H15.892H15.9566H16.0145H16.0787H16.143H16.2076H16.2655H16.3297H16.3944H16.4587H16.5165H16.5807H16.6454H16.7097H16.7674H16.8317H16.8964H16.9607H17.0184H17.0827H17.1474L17.1793 24.4409L17.2116 24.4982L17.25 24.5487L17.2824 24.606L17.3147 24.657L17.3466 24.7143L17.3789 24.7648L17.4174 24.8222L17.4496 24.8731L17.482 24.9241L17.514 24.9809L17.5463 25.0319L17.5847 25.0892L17.617 25.1402L17.6493 25.1971L17.6813 25.248L17.7201 25.2989L17.7524 25.3559L17.7843 25.4068L17.8166 25.4641L17.8486 25.5151L17.8874 25.572L17.9197 25.623L17.9516 25.6802L17.984 25.7308L18.0159 25.7817L18.0547 25.839L18.087 25.89L18.119 25.9473L18.1513 25.9979L18.1832 26.0552L18.2221 26.1061L18.2544 26.163L18.2863 26.214L18.3186 26.163L18.3509 26.1061L18.3894 26.0552L18.4216 25.9979L18.4536 25.9473L18.4859 25.89L18.5244 25.839L18.5567 25.7817L18.589 25.7308L18.6209 25.6802L18.6597 25.623L18.6917 25.572L18.724 25.5151L18.7563 25.4641L18.7947 25.4068L18.827 25.3559L18.8594 25.2989L18.8913 25.248L18.9237 25.1971L18.9621 25.1402L18.9944 25.0892L19.0267 25.0319L19.0587 24.9809L19.0974 24.9241L19.1294 24.8731L19.1617 24.8222L19.194 24.7648L19.2324 24.7143L19.2648 24.657L19.2967 24.606L19.329 24.5487L19.3678 24.4982L19.3998 24.4409L19.4321 24.3899H19.4963H19.5606H19.6188H19.6831H19.7473H19.8116H19.8698H19.9341H19.9983H20.0626H20.1208H20.185H20.2493H20.3136H20.3717H20.4361H20.5003H20.5646H20.6227H20.687H20.7512V24.4536V24.5173V24.581V24.6447V24.7083V24.7719V24.8356V24.8993V24.963V25.0267V25.0903V25.154V25.2177V25.2814V25.345V25.4087V25.4724V25.536V25.5933V25.657V25.7207V25.7843V25.848V25.9117V25.9754V26.0391V26.1027V26.1663V26.23V26.2937V26.3574V26.4207V26.4843V26.548V26.6117V26.6753V26.739V26.8026V26.8664V26.9301V26.9937V27.0574V27.1211V27.1847V27.2484V27.312V27.3757V27.4394V27.503V27.5667V27.6304V27.6941V27.7577V27.8214V27.8787V27.9424V28.0061V28.0697V28.1334V28.197V28.2607V28.3244V28.3881V28.4518V28.5155V28.5791V28.6427V28.7064V28.7701V28.8334V28.8971V28.9608V29.0245H20.687ZM13.2194 27.1147L13.2 27.057L13.1746 26.9933L13.1487 26.936L13.1293 26.8784L13.1038 26.821L13.078 26.7573L13.0586 26.6997L13.0327 26.6424L13.0073 26.5851L12.9878 26.5275L12.9619 26.4637L12.943 26.4064L12.9171 26.3488L12.8912 26.2915L12.8719 26.2341L12.8463 26.1702L12.8205 26.1128L12.8011 26.0555L12.7752 25.9979L12.7498 25.9342L12.7304 25.8765L12.7045 25.8192L12.6791 25.8765L12.6597 25.9342L12.6338 25.9979L12.608 26.0555L12.5889 26.1128L12.5631 26.1702L12.5372 26.2341L12.5118 26.2915L12.4923 26.3488L12.4665 26.4064L12.4406 26.4637L12.4216 26.5275L12.3957 26.5851L12.3698 26.6424L12.3505 26.6997L12.325 26.7573L12.2991 26.821L12.2733 26.8784L12.2543 26.936L12.2284 26.9933L12.2026 27.057L12.1832 27.1147L12.1577 27.172H12.222H12.2862H12.3505H12.4151H12.4794H12.5436H12.608H12.6726H12.7304H12.7946H12.8593H12.9236H12.9878H13.0521H13.1164H13.181H13.2453L13.2194 27.1147ZM15.2407 29.0245H15.176H15.1181H15.054H14.9893H14.925H14.8607H14.803H14.7383H14.674H14.6098H14.5455H14.4808H14.423H14.3588H14.2944H14.2298H14.1656H14.1078H14.0435H13.9789L13.9534 28.9671L13.934 28.9098L13.9082 28.8525L13.8823 28.7888L13.8632 28.7319L13.8374 28.6746L13.8115 28.6173L13.7925 28.56L13.7667 28.5027L13.7408 28.4454L13.7215 28.3881L13.6959 28.3244L13.67 28.2671L13.6507 28.2098L13.6248 28.1525H13.5605H13.4963H13.432H13.3678H13.3096H13.2453H13.181H13.1164H13.0521H12.9878H12.9236H12.8593H12.7946H12.7304H12.6726H12.608H12.5436H12.4794H12.4151H12.3505H12.2862H12.222H12.1577H12.0935H12.0352H11.971H11.9067H11.842H11.7778L11.7523 28.2098L11.7329 28.2671L11.707 28.3244L11.6812 28.3881L11.6622 28.4454L11.6364 28.5027L11.6105 28.56L11.5911 28.6173L11.5656 28.6746L11.5397 28.7319L11.5203 28.7888L11.4948 28.8525L11.469 28.9098L11.4496 28.9671L11.4237 29.0245H11.3595H11.2952H11.231H11.1663H11.102H11.0313H10.967H10.9027H10.8381H10.7739H10.7096H10.6453H10.5806H10.5164H10.4522H10.3814H10.3168H10.2525H10.1882H10.1239L10.1494 28.9671L10.1753 28.9098L10.2011 28.8525L10.2266 28.7888L10.246 28.7319L10.2719 28.6746L10.2977 28.6173L10.3232 28.56L10.3491 28.5027L10.3749 28.439L10.4004 28.3817L10.4263 28.3244L10.4456 28.2671L10.4715 28.2098L10.497 28.1525L10.5228 28.0889L10.5487 28.0316L10.5742 27.9742L10.6001 27.9169L10.6259 27.8596L10.6453 27.8023L10.6707 27.7386L10.6966 27.6814L10.7225 27.624L10.748 27.5667L10.7739 27.5094L10.7997 27.4521L10.8252 27.3884L10.8446 27.3312L10.8705 27.2739L10.8963 27.2165L10.9218 27.1592L10.9476 27.1019L10.9735 27.0383L10.999 26.981L11.0248 26.9237L11.0442 26.8664L11.0701 26.8091L11.0955 26.7518L11.1214 26.6881L11.1473 26.6308L11.1728 26.5735L11.1986 26.5162L11.2245 26.4589L11.2439 26.4015L11.2694 26.3446L11.2952 26.2809L11.321 26.2237L11.3465 26.1663L11.3724 26.109L11.3983 26.0518L11.4237 25.9945L11.4431 25.9308L11.469 25.8735L11.4948 25.8162L11.5203 25.7589L11.5462 25.7016L11.572 25.6443L11.5976 25.5806L11.6234 25.5233L11.6428 25.466L11.6686 25.4087L11.6941 25.3514L11.7199 25.2941L11.7458 25.2304L11.7713 25.1731L11.7972 25.1158L11.823 25.0585L11.842 25.0013L11.8679 24.9439L11.8938 24.8802L11.9197 24.8229L11.9451 24.7656L11.971 24.7083L11.9968 24.651L12.0223 24.5938L12.0418 24.5301L12.0676 24.4727L12.0935 24.4154L12.1189 24.3581H12.1832H12.2414H12.3056H12.3698H12.4345H12.4923H12.5565H12.6209H12.6855H12.7434H12.8076H12.8719H12.9365H12.9943H13.0586H13.1228H13.1875H13.2453H13.3096L13.3354 24.4154L13.3613 24.4727L13.3868 24.5301L13.4126 24.5938L13.432 24.651L13.4575 24.7083L13.4834 24.7656L13.5092 24.8229L13.5351 24.8802L13.5605 24.9439L13.5864 25.0013L13.6123 25.0585L13.6313 25.1158L13.6571 25.1731L13.683 25.2304L13.7089 25.2941L13.7344 25.3514L13.7602 25.4087L13.7861 25.466L13.8115 25.5233L13.8309 25.5806L13.8567 25.6443L13.8823 25.7016L13.9082 25.7589L13.934 25.8162L13.9599 25.8735L13.9853 25.9308L14.0111 25.9945L14.0306 26.0518L14.056 26.109L14.0819 26.1663L14.1078 26.2237L14.1336 26.2809L14.1591 26.3446L14.185 26.4015L14.2108 26.4589L14.2298 26.5162L14.2556 26.5735L14.2815 26.6308L14.3071 26.6881L14.3329 26.7518L14.3588 26.8091L14.3847 26.8664L14.4101 26.9237L14.4295 26.981L14.4553 27.0383L14.4808 27.1019L14.5067 27.1592L14.5325 27.2165L14.5584 27.2739L14.5839 27.3312L14.6098 27.3884L14.6291 27.4521L14.6546 27.5094L14.6804 27.5667L14.7063 27.624L14.7318 27.6814L14.7577 27.7386L14.7836 27.8023L14.8094 27.8596L14.8284 27.9169L14.8543 27.9742L14.8802 28.0316L14.9056 28.0889L14.9315 28.1525L14.9573 28.2098L14.9832 28.2671L15.0086 28.3244L15.0281 28.3817L15.054 28.439L15.0794 28.5027L15.1052 28.56L15.1311 28.6173L15.1566 28.6746L15.1824 28.7319L15.2083 28.7888L15.2278 28.8525L15.2531 28.9098L15.279 28.9671L15.3048 29.0245H15.2407ZM9.60223 28.4326L9.55052 28.4708L9.5056 28.5027L9.4539 28.5409L9.40256 28.5727L9.35122 28.6109L9.29951 28.6427L9.24817 28.6746L9.18998 28.7064L9.13215 28.7383L9.07432 28.7701L9.0162 28.7951L8.95836 28.827L8.89411 28.8525L8.83636 28.878L8.77167 28.9034L8.71391 28.9289L8.65601 28.948L8.59789 28.9671L8.54006 28.9863L8.47581 29.0053L8.41805 29.0245L8.35337 29.0372L8.29554 29.0499L8.23129 29.0626L8.16668 29.0753L8.10236 29.0817L8.03162 29.0881L7.96737 29.0945L7.89663 29.1008L7.83195 29.1072L7.76128 29.1135H7.69054H7.61973H7.54906H7.48438L7.42013 29.1072L7.34939 29.1008L7.28514 29.0945L7.2209 29.0881L7.15621 29.0817L7.09196 29.069L7.02764 29.0562L6.96988 29.0435L6.90527 29.0308L6.84744 29.0117L6.78319 28.999L6.725 28.9798L6.66717 28.9544L6.60934 28.9353L6.54516 28.9098L6.48697 28.8843L6.42914 28.8589L6.37138 28.8334L6.31311 28.8016L6.26184 28.7701L6.20401 28.7383L6.15231 28.7064L6.10097 28.6746L6.04926 28.6363L5.99792 28.5982L5.94651 28.56L5.9013 28.5218L5.85644 28.4836L5.81116 28.439L5.76631 28.4009L5.72102 28.3562L5.67617 28.3117L5.63738 28.2671L5.59894 28.2162L5.56015 28.1716L5.52784 28.1207L5.48941 28.0697L5.45718 28.0188L5.42516 27.9678L5.39286 27.9105L5.36055 27.8596L5.3351 27.8023L5.30921 27.745L5.28339 27.6877L5.25787 27.6304L5.23847 27.5795L5.21258 27.5221L5.19967 27.4648L5.18064 27.4076L5.16773 27.344L5.14833 27.2866L5.13543 27.2229L5.12894 27.1656L5.11596 27.1019L5.10961 27.0447L5.10305 26.981L5.09699 26.9173L5.09057 26.8536V26.7836V26.7199V26.7072V26.6435L5.09699 26.5735V26.5098L5.10305 26.4461L5.10961 26.3761L5.12252 26.3128L5.12894 26.2491L5.14184 26.1918L5.16124 26.1282L5.17422 26.0645L5.19318 26.0072L5.21258 25.9435L5.23198 25.8862L5.25787 25.8225L5.28339 25.7653L5.30921 25.708L5.3351 25.6507L5.36055 25.5933L5.39286 25.536L5.42516 25.4851L5.45718 25.4341L5.48941 25.3832L5.52179 25.3323L5.56015 25.2814L5.59894 25.2304L5.63738 25.1795L5.67617 25.1348L5.72102 25.0903L5.75982 25.0457L5.80474 25.0013L5.84995 24.9566L5.89481 24.9185L5.94651 24.8739L5.99143 24.8356L6.04278 24.7974L6.09448 24.7656L6.14582 24.7274L6.19759 24.6956L6.24886 24.6638L6.30669 24.6319L6.36489 24.6001L6.42265 24.5683L6.48048 24.5428L6.5386 24.5173L6.60292 24.4855L6.65426 24.4664L6.71851 24.4472L6.77677 24.4218L6.83453 24.409L6.89229 24.3899L6.9569 24.3772L7.01473 24.3581L7.07898 24.3454L7.1433 24.339L7.20791 24.3263L7.27224 24.3199L7.33641 24.3136L7.40073 24.3072L7.46542 24.3008H7.53616H7.60041H7.67107H7.74181L7.81298 24.3072L7.88372 24.3136H7.94797L8.01222 24.3199L8.08296 24.3327L8.14115 24.339L8.2054 24.3518L8.26972 24.3645L8.32784 24.3772L8.3856 24.3899L8.44351 24.4027L8.5017 24.4218L8.55946 24.4345L8.6108 24.4536L8.66899 24.4727L8.72682 24.4982L8.78458 24.5237L8.84277 24.5492L8.9006 24.581L8.95836 24.6065L9.01014 24.6383L9.0679 24.6701L9.11924 24.7019L9.17743 24.7338L9.22877 24.7719L9.28012 24.8038L9.33182 24.842L9.38316 24.8802L9.43486 24.9248L9.4862 24.963L9.44741 25.014L9.40256 25.0585L9.36376 25.1094L9.31891 25.1603L9.28012 25.2113L9.24168 25.2559L9.1964 25.3068L9.15803 25.3577L9.11924 25.4024L9.07432 25.4533L9.03559 25.5042L8.99067 25.5551L8.95187 25.5997L8.91351 25.6507L8.8683 25.7016L8.82979 25.7525L8.78458 25.7971L8.74615 25.848L8.69445 25.8098L8.6431 25.7653L8.5914 25.7334L8.54006 25.6952L8.48872 25.6634L8.43702 25.6315L8.3856 25.5997L8.32784 25.5678L8.27614 25.5424L8.2248 25.5169L8.1731 25.4978L8.11526 25.4787L8.05751 25.4596L7.99931 25.4469L7.93506 25.4341L7.87082 25.4214L7.80649 25.4151L7.73575 25.4087L7.66465 25.4024H7.59391H7.52967L7.46542 25.4087L7.40722 25.4151L7.34298 25.4278L7.28514 25.4406L7.22695 25.4596L7.16919 25.4787L7.11136 25.5042L7.05353 25.5296L7.00183 25.5615L6.95056 25.5933L6.89878 25.6252L6.85393 25.6634L6.80865 25.7016L6.76379 25.7398L6.725 25.7843L6.68015 25.8289L6.64135 25.8798L6.60934 25.9244L6.57703 25.9754L6.54516 26.0327L6.51278 26.0836L6.48697 26.1409L6.46757 26.1982L6.44204 26.2555L6.42265 26.3192L6.40974 26.3825L6.39683 26.4397L6.38385 26.5098L6.37743 26.5735L6.37138 26.6371V26.7072V26.7199V26.7836L6.37743 26.8472L6.38385 26.9046L6.39034 26.9683L6.40325 27.0255L6.41623 27.0829L6.42914 27.1401L6.44853 27.1974L6.46757 27.2484L6.49346 27.312L6.51927 27.3694L6.55122 27.4267L6.58352 27.4776L6.61583 27.5285L6.65426 27.5795L6.69306 27.624L6.73791 27.6686L6.77677 27.7132L6.82155 27.7514L6.87333 27.7896L6.92467 27.8278L6.97594 27.8596L7.02764 27.8914L7.08555 27.9169L7.1433 27.9424L7.20142 27.9678L7.26575 27.987L7.33 28.0061L7.39468 28.0188L7.45893 28.0316L7.52318 28.0379L7.59391 28.0443H7.66465H7.74181L7.81298 28.0379L7.88372 28.0316L7.94797 28.0252L8.01222 28.0124L8.0769 27.9997L8.14115 27.9806L8.19891 27.9678L8.25681 27.9424L8.30852 27.9169L8.36627 27.8914L8.41149 27.866L8.4629 27.8341V27.7705V27.7069V27.6432V27.5795V27.5094V27.4458V27.3821V27.3185V27.2548H8.39858H8.34046H8.27614H8.21189H8.14764H8.08945H8.02513H7.96088H7.89663H7.83851H7.77419H7.70994H7.64562H7.5875H7.52318V27.1911V27.1338V27.0701V27.0065V26.9428V26.8855V26.8218V26.7581V26.6945V26.6371V26.5735V26.5098V26.4461V26.3888V26.3255H7.5875H7.65211H7.71643H7.78061H7.84493H7.90918H7.97386H8.03811H8.10236H8.16668H8.23129H8.29554H8.35979H8.42404H8.48872H8.55304H8.61729H8.68154H8.74615H8.81047H8.87472H8.93897H9.00358H9.0679H9.13215H9.1964H9.26108H9.32533H9.38965H9.4539H9.51851H9.58276H9.64708V26.3888V26.4525V26.5162V26.5735V26.6371V26.7008V26.7644V26.8281V26.8918V26.9491V27.0128V27.0765V27.1401V27.2038V27.2675V27.3312V27.3884V27.4521V27.5158V27.5795V27.6432V27.7069V27.7705V27.8278V27.8914V27.9551V28.0188V28.0825V28.1461V28.2035V28.2671V28.3308V28.3945L9.60223 28.4326ZM10.3216 13.9039H7.53225V18.527H10.4768V20.6521H5.16353V5.31559H10.4327V7.44061H7.53225V11.7789H10.3216V13.9039ZM27.5119 14.3642V17.826C27.5119 18.4395 27.2239 18.7241 26.6265 18.7241H26.1835C25.5637 18.7241 25.2758 18.4395 25.2758 17.826V8.14171C25.2758 7.52826 25.5637 7.24361 26.1835 7.24361H26.582C27.1798 7.24361 27.4677 7.52826 27.4677 8.14171V11.1436H29.792V8.01026C29.792 6.10433 28.8622 5.18407 26.9365 5.18407H25.785C23.8593 5.18407 22.907 6.12606 22.907 8.03234V17.9353C22.907 19.8417 23.8593 20.7836 25.785 20.7836H26.9585C28.8847 20.7836 29.8365 19.8417 29.8365 17.9353V14.3642H27.5119ZM21.6552 20.6522H19.2861V5.31556H21.6552V20.6522ZM15.8486 12.1294C15.8486 12.7429 15.5611 13.0279 14.9633 13.0279H13.9891V7.37508H14.9633C15.5611 7.37508 15.8486 7.6598 15.8486 8.27319V12.1294ZM15.3395 5.31555H11.6203V20.6522H13.9891V15.087H15.3395C17.2656 15.087 18.2174 14.1451 18.2174 12.2391V8.16382C18.2174 6.25754 17.2656 5.31555 15.3395 5.31555ZM24.3122 34.5195H10.7518L17.3908 36.7675L24.3122 34.5195Z" fill="#BBBBBB"/>
</g>
</g>
<defs>
<clipPath id="clip0_660_14069">
<rect width="35" height="40" fill="white"/>
</clipPath>
</defs>
</svg>
