<svg width="40" height="40" viewBox="0 0 40 40" fill="none" xmlns="http://www.w3.org/2000/svg">
<path d="M19.9654 0C9.44102 0 0.819284 8.101 0 18.3961L10.7381 22.8282C11.648 22.207 12.7471 21.843 13.9296 21.843C14.0356 21.843 14.1411 21.8467 14.2458 21.8525L19.0211 14.9429C19.0211 14.9099 19.0206 14.8778 19.0206 14.8452C19.0206 10.6862 22.4096 7.30257 26.5762 7.30257C30.7424 7.30257 34.1314 10.6862 34.1314 14.8452C34.1314 19.0042 30.7424 22.3883 26.5762 22.3883C26.5187 22.3883 26.4617 22.3869 26.4046 22.3856L19.594 27.2368C19.5976 27.3249 19.6008 27.4149 19.6008 27.5044C19.6008 30.6267 17.0569 33.1658 13.9296 33.1658C11.1847 33.1658 8.88939 31.21 8.36947 28.6198L0.69021 25.4505C3.0679 33.8454 10.7938 40 19.9654 40C31.0304 40 40 31.0454 40 20.0007C40 8.95414 31.03 0 19.9654 0Z" fill="#A9D800"/>
<path d="M12.5548 30.3471L10.0938 29.3321C10.5299 30.2386 11.2844 30.9977 12.2862 31.4145C14.4519 32.3151 16.9487 31.2893 17.8514 29.1255C18.2884 28.0793 18.2911 26.9241 17.8577 25.8752C17.4252 24.8259 16.6091 24.0075 15.5597 23.5708C14.5185 23.1381 13.403 23.1539 12.423 23.5233L14.9651 24.5727C16.5624 25.2373 17.3179 27.0683 16.6521 28.663C15.9877 30.258 14.1521 31.0121 12.5548 30.3471Z" fill="#A9D800"/>
<path d="M31.6078 14.8454C31.6078 12.0743 29.3497 9.81964 26.5734 9.81964C23.7976 9.81964 21.5391 12.0743 21.5391 14.8454C21.5391 17.6168 23.7976 19.8706 26.5734 19.8706C29.3497 19.8702 31.6078 17.6164 31.6078 14.8454ZM22.7999 14.8368C22.7999 12.7516 24.4933 11.0616 26.582 11.0616C28.6708 11.0616 30.3641 12.7516 30.3641 14.8368C30.3641 16.9219 28.6708 18.6119 26.582 18.6119C24.4933 18.6119 22.7999 16.9215 22.7999 14.8368Z" fill="#A9D800"/>
</svg>
