<svg
        xmlns="http://www.w3.org/2000/svg"
        width="20"
        height="20"
        viewBox="0 0 20 20"
        fill="none"
>
    <g clip-path="url(#clip0_3263_28319)">
        <path
                fill-rule="evenodd"
                clip-rule="evenodd"
                d="M18.0553 1.94469C18.426 2.31544 18.426 2.91655 18.0553 3.2873L3.28736 18.0552C2.91661 18.426 2.3155 18.426 1.94475 18.0552C1.574 17.6845 1.574 17.0834 1.94475 16.7126L16.7127 1.94469C17.0834 1.57394 17.6845 1.57394 18.0553 1.94469Z"
                fill="#E02B1D"
        />
        <path
                fill-rule="evenodd"
                clip-rule="evenodd"
                d="M1.94475 1.94469C2.3155 1.57394 2.91661 1.57394 3.28736 1.94469L18.0553 16.7126C18.426 17.0834 18.426 17.6845 18.0553 18.0552C17.6845 18.426 17.0834 18.426 16.7127 18.0552L1.94475 3.2873C1.574 2.91655 1.574 2.31544 1.94475 1.94469Z"
                fill="#E02B1D"
        />
    </g>
    <defs>
        <clipPath id="clip0_3263_28319">
            <rect width="20" height="20" fill="white"/>
        </clipPath>
    </defs>
</svg>
