<svg width="15" height="15" viewBox="0 0 15 15" fill="none" xmlns="http://www.w3.org/2000/svg">
<path d="M12.9994 14H7.66603M0.666016 14.3333L4.36553 12.9104C4.60216 12.8194 4.72047 12.7739 4.83116 12.7145C4.92948 12.6617 5.02322 12.6008 5.11138 12.5324C5.21063 12.4554 5.30027 12.3657 5.47954 12.1865L12.9994 4.66665C13.7357 3.93027 13.7357 2.73636 12.9994 1.99998C12.263 1.2636 11.0691 1.2636 10.3327 1.99998L2.81287 9.51979C2.6336 9.69906 2.54396 9.7887 2.46694 9.88795C2.39853 9.97611 2.33762 10.0698 2.28484 10.1682C2.22542 10.2789 2.17991 10.3972 2.0889 10.6338L0.666016 14.3333ZM0.666016 14.3333L2.0381 10.766C2.13628 10.5107 2.18537 10.383 2.26958 10.3246C2.34316 10.2735 2.43422 10.2542 2.52221 10.271C2.6229 10.2902 2.7196 10.3869 2.913 10.5803L4.41906 12.0863C4.61246 12.2797 4.70916 12.3764 4.72839 12.4771C4.7452 12.5651 4.72587 12.6562 4.67478 12.7298C4.61631 12.814 4.48867 12.8631 4.2334 12.9613L0.666016 14.3333Z" stroke="#A9D800" stroke-linecap="round" stroke-linejoin="round"/>
</svg>
