<svg width="20" height="20" viewBox="0 0 20 20" fill="none" xmlns="http://www.w3.org/2000/svg">
<path d="M5.43346 13.55C5.27513 13.55 5.1168 13.4916 4.9918 13.3666C4.75013 13.125 4.75013 12.725 4.9918 12.4833L7.53346 9.94163C7.77513 9.69996 8.17513 9.69996 8.4168 9.94163C8.65846 10.1833 8.65846 10.5833 8.4168 10.825L5.87513 13.3666C5.75013 13.4833 5.5918 13.55 5.43346 13.55Z" fill="#8D8D8D"/>
<path d="M8.00052 13.575C7.84219 13.575 7.68385 13.5167 7.55885 13.3917L5.01719 10.85C4.77552 10.6083 4.77552 10.2083 5.01719 9.96665C5.25885 9.72498 5.65885 9.72498 5.90052 9.96665L8.44219 12.5083C8.68385 12.75 8.68385 13.15 8.44219 13.3917C8.31719 13.5167 8.15885 13.575 8.00052 13.575Z" fill="#8D8D8D"/>
<path d="M11.2831 12.5C10.8247 12.5 10.4414 12.125 10.4414 11.6667C10.4414 11.2084 10.8081 10.8334 11.2664 10.8334H11.2831C11.7414 10.8334 12.1164 11.2084 12.1164 11.6667C12.1164 12.125 11.7497 12.5 11.2831 12.5Z" fill="#8D8D8D"/>
<path d="M14.5673 12.5C14.1089 12.5 13.7256 12.125 13.7256 11.6667C13.7256 11.2084 14.0923 10.8334 14.5506 10.8334H14.5673C15.0256 10.8334 15.4006 11.2084 15.4006 11.6667C15.4006 12.125 15.0256 12.5 14.5673 12.5Z" fill="#8D8D8D"/>
<path d="M12.9173 14.1417C12.459 14.1417 12.084 13.775 12.084 13.3167V13.3C12.084 12.8417 12.459 12.4667 12.9173 12.4667C13.3757 12.4667 13.7507 12.8417 13.7507 13.3C13.7507 13.7583 13.384 14.1417 12.9173 14.1417Z" fill="#8D8D8D"/>
<path d="M12.9173 10.8583C12.459 10.8583 12.084 10.4917 12.084 10.0333V10.0167C12.084 9.55835 12.459 9.18335 12.9173 9.18335C13.3757 9.18335 13.7507 9.55835 13.7507 10.0167C13.7507 10.475 13.384 10.8583 12.9173 10.8583Z" fill="#8D8D8D"/>
<path d="M12.5003 18.9583H7.50033C2.97533 18.9583 1.04199 17.025 1.04199 12.5V10.8333C1.04199 6.30833 2.97533 4.375 7.50033 4.375H12.5003C17.0253 4.375 18.9587 6.30833 18.9587 10.8333V12.5C18.9587 17.025 17.0253 18.9583 12.5003 18.9583ZM7.50033 5.625C3.65866 5.625 2.29199 6.99167 2.29199 10.8333V12.5C2.29199 16.3417 3.65866 17.7083 7.50033 17.7083H12.5003C16.342 17.7083 17.7087 16.3417 17.7087 12.5V10.8333C17.7087 6.99167 16.342 5.625 12.5003 5.625H7.50033Z" fill="#8D8D8D"/>
<path d="M10.8249 5.62496H9.99154C9.19154 5.62496 8.5332 4.96663 8.5332 4.16663C8.5332 3.36663 9.1832 2.70829 9.9832 2.70829C10.1165 2.70829 10.2082 2.61663 10.2165 2.49996L10.2249 1.65829C10.2332 1.31663 10.5082 1.04163 10.8499 1.04163H10.8582C11.1999 1.04996 11.4832 1.33329 11.4749 1.67496L11.4665 2.51663C11.4582 3.30829 10.7999 3.95829 10.0082 3.95829C9.87487 3.95829 9.79154 4.04996 9.79154 4.16663C9.79154 4.28329 9.8832 4.37496 9.99987 4.37496H10.8332C11.1749 4.37496 11.4582 4.65829 11.4582 4.99996C11.4582 5.34163 11.1665 5.62496 10.8249 5.62496Z" fill="#8D8D8D"/>
</svg>
