<svg width="40" height="40" viewBox="0 0 40 40" fill="none" xmlns="http://www.w3.org/2000/svg">
<path fill-rule="evenodd" clip-rule="evenodd" d="M11.9153 25.679H7.26211C7.17541 25.6791 7.08959 25.6971 7.00955 25.7322C6.92952 25.7672 6.85686 25.8184 6.79573 25.883C6.7346 25.9476 6.68621 26.0243 6.65334 26.1086C6.62048 26.1929 6.60377 26.2832 6.60419 26.3743C6.60419 26.3743 6.60578 26.3743 6.60578 26.3788H6.60419V29.8675H6.60578L6.60419 29.8703C6.60419 30.2528 6.89707 30.5672 7.26211 30.5672H11.9153V32.8946H6.10916V32.889C5.88363 32.8893 5.66025 32.8429 5.45179 32.7524C5.24333 32.6619 5.05389 32.5291 4.89429 32.3617C4.73469 32.1942 4.60806 31.9953 4.52163 31.7764C4.43521 31.5575 4.39069 31.3228 4.39062 31.0858V25.1532C4.39203 24.6755 4.57381 24.2179 4.89604 23.881C5.21827 23.544 5.65459 23.3553 6.10916 23.3562H11.9153V25.679Z" fill="#BBBBBB"/>
<path fill-rule="evenodd" clip-rule="evenodd" d="M13.6004 19.1993C13.6007 19.4398 13.5558 19.6779 13.4684 19.9001C13.381 20.1224 13.2528 20.3243 13.091 20.4944C12.9293 20.6644 12.7372 20.7993 12.5258 20.8913C12.3144 20.9833 12.0878 21.0306 11.859 21.0304H4.39062V18.6719H10.687C11.0573 18.6719 11.3544 18.3535 11.3544 17.966V10.1689C11.3544 9.78026 11.0573 9.46523 10.687 9.46523H7.30349C7.21568 9.46531 7.12874 9.48357 7.04765 9.51899C6.96657 9.5544 6.89292 9.60627 6.83092 9.67163C6.76893 9.73698 6.71981 9.81454 6.68636 9.89987C6.65292 9.98519 6.63582 10.0766 6.63602 10.1689V13.7173C6.63561 13.8097 6.65255 13.9014 6.6859 13.9869C6.71924 14.0725 6.76832 14.1502 6.83033 14.2158C6.89234 14.2814 6.96605 14.3335 7.04725 14.3691C7.12844 14.4046 7.21552 14.423 7.30349 14.4232H10.0068V16.7817H6.13198C5.90329 16.782 5.6768 16.7349 5.46546 16.643C5.25413 16.5512 5.06211 16.4165 4.90041 16.2465C4.7387 16.0766 4.61048 15.8748 4.5231 15.6527C4.43571 15.4306 4.39088 15.1926 4.39116 14.9523V8.93498C4.39095 8.69463 4.43582 8.45659 4.52322 8.23447C4.61062 8.01236 4.73882 7.81053 4.9005 7.64052C5.06218 7.47051 5.25416 7.33566 5.46547 7.24368C5.67677 7.1517 5.90326 7.1044 6.13198 7.10447H11.859C12.3209 7.10462 12.7638 7.29754 13.0904 7.64081C13.4169 7.98408 13.6004 8.4496 13.6004 8.93498V19.1993Z" fill="#BBBBBB"/>
<path fill-rule="evenodd" clip-rule="evenodd" d="M35.6044 32.8896H33.3908V25.6802H31.8363C31.7495 25.6801 31.6636 25.6981 31.5835 25.733C31.5034 25.7679 31.4306 25.8191 31.3694 25.8837C31.3081 25.9482 31.2596 26.0249 31.2267 26.1092C31.1937 26.1935 31.1769 26.2838 31.1773 26.3749V32.8896H28.9648V25.6802H27.4086C27.3219 25.6803 27.2361 25.6983 27.156 25.7333C27.0759 25.7683 27.0032 25.8195 26.942 25.884C26.8808 25.9485 26.8323 26.0251 26.7993 26.1093C26.7663 26.1936 26.7494 26.2838 26.7496 26.3749V32.8958H24.5371V25.1544C24.538 24.6769 24.7192 24.2192 25.0411 23.8821C25.363 23.545 25.7991 23.3561 26.2535 23.3568H35.6039L35.6044 32.8896Z" fill="#BBBBBB"/>
<path fill-rule="evenodd" clip-rule="evenodd" d="M35.6096 19.1993C35.6099 19.4397 35.5651 19.6778 35.4777 19.9C35.3903 20.1222 35.2621 20.3241 35.1005 20.4942C34.9388 20.6642 34.7468 20.7991 34.5354 20.8911C34.3241 20.9832 34.0975 21.0305 33.8688 21.0304H26.4004V18.6719H32.6967C33.0681 18.6719 33.3674 18.3535 33.3674 17.966V10.1689C33.3675 10.0764 33.3502 9.98475 33.3165 9.89927C33.2828 9.81379 33.2334 9.73614 33.1711 9.67077C33.1088 9.6054 33.0348 9.5536 32.9534 9.51833C32.872 9.48306 32.7848 9.46502 32.6967 9.46524H29.3138C29.1368 9.46597 28.9672 9.54047 28.8424 9.67238C28.7176 9.8043 28.6476 9.98285 28.6479 10.1689V13.7173C28.6479 14.107 28.9472 14.4232 29.3138 14.4232H32.0155V16.7817H28.1423C27.9136 16.7819 27.687 16.7348 27.4757 16.6429C27.2643 16.5511 27.0723 16.4163 26.9105 16.2464C26.7487 16.0765 26.6204 15.8748 26.5329 15.6527C26.4453 15.4307 26.4003 15.1927 26.4004 14.9523V8.93498C26.4003 8.69451 26.4452 8.45636 26.5327 8.23417C26.6203 8.01198 26.7486 7.81011 26.9105 7.64009C27.0723 7.47008 27.2644 7.33526 27.4759 7.24335C27.6873 7.15145 27.914 7.10425 28.1428 7.10447H33.8683C34.33 7.10492 34.7727 7.29795 35.0991 7.64117C35.4255 7.9844 35.6089 8.44974 35.6091 8.93498L35.6096 19.1993Z" fill="#BBBBBB"/>
<path fill-rule="evenodd" clip-rule="evenodd" d="M22.3525 10.175V13.7172C22.3537 13.8094 22.3375 13.901 22.3047 13.9866C22.272 14.0722 22.2234 14.1501 22.1619 14.2158C22.1003 14.2815 22.0269 14.3337 21.9459 14.3694C21.865 14.4051 21.7781 14.4235 21.6904 14.4237H18.3079C18.2198 14.4236 18.1326 14.4052 18.0513 14.3697C17.97 14.3341 17.8962 14.282 17.834 14.2163C17.7719 14.1507 17.7228 14.0728 17.6894 13.9872C17.656 13.9015 17.639 13.8098 17.6394 13.7172V10.1688C17.6394 9.78019 17.9365 9.46572 18.3079 9.46572H21.6904C21.7779 9.46571 21.8646 9.48395 21.9454 9.51937C22.0261 9.55479 22.0994 9.6067 22.161 9.67208C22.2226 9.73747 22.2712 9.81504 22.3041 9.9003C22.337 9.98556 22.3534 10.0768 22.3525 10.1688V10.175ZM22.8619 7.10551H17.1343C16.9057 7.10559 16.6794 7.15298 16.4682 7.24499C16.2571 7.337 16.0652 7.47182 15.9037 7.64176C15.7421 7.81169 15.614 8.01341 15.5266 8.23539C15.4393 8.45736 15.3944 8.69525 15.3945 8.93547V14.9528C15.3942 15.1931 15.4389 15.4311 15.5262 15.6531C15.6135 15.8752 15.7416 16.077 15.9032 16.247C16.0648 16.417 16.2567 16.5518 16.468 16.6437C16.6792 16.7356 16.9057 16.7829 17.1343 16.7827H22.8619C23.3235 16.7823 23.766 16.5893 24.0923 16.2462C24.4187 15.9031 24.602 15.4379 24.6022 14.9528V8.93547C24.6019 8.45042 24.4185 7.9853 24.0922 7.64221C23.7659 7.29913 23.3234 7.1061 22.8619 7.10551Z" fill="#BBBBBB"/>
<path fill-rule="evenodd" clip-rule="evenodd" d="M20.5539 26.3789V29.8677C20.5543 29.9587 20.5376 30.049 20.5049 30.1333C20.4721 30.2177 20.4238 30.2944 20.3628 30.3591C20.3018 30.4238 20.2293 30.4753 20.1494 30.5105C20.0695 30.5458 19.9837 30.5642 19.897 30.5646C19.8938 30.5646 19.8928 30.5607 19.8896 30.5607V30.5646H16.5703V30.5607C16.5703 30.5607 16.5666 30.5646 16.5629 30.5646C16.4761 30.5643 16.3903 30.5461 16.3102 30.5109C16.2302 30.4757 16.1575 30.4242 16.0964 30.3595C16.0353 30.2948 15.9869 30.218 15.9541 30.1336C15.9212 30.0492 15.9046 29.9588 15.905 29.8677V26.3745C15.905 25.9908 16.1978 25.6792 16.5629 25.6792H19.897C19.9837 25.6793 20.0694 25.6974 20.1493 25.7325C20.2293 25.7675 20.3018 25.8188 20.3629 25.8834C20.4239 25.948 20.4722 26.0247 20.505 26.1089C20.5378 26.1932 20.5544 26.2834 20.5539 26.3745V26.3789ZM21.051 23.3563H15.4084C14.9539 23.3554 14.5178 23.5442 14.1958 23.8812C13.8738 24.2182 13.6924 24.6758 13.6914 25.1534V31.0859C13.6914 31.3228 13.7358 31.5574 13.8221 31.7762C13.9084 31.995 14.0349 32.1938 14.1944 32.3612C14.3538 32.5286 14.5431 32.6614 14.7514 32.7518C14.9597 32.8423 15.183 32.8888 15.4084 32.8886H21.051C21.5059 32.8884 21.9421 32.6985 22.2636 32.3604C22.5852 32.0224 22.7659 31.5639 22.7659 31.0859V25.1534C22.7647 24.6762 22.5836 24.219 22.2621 23.882C21.9406 23.545 21.5051 23.3563 21.051 23.3563Z" fill="#BBBBBB"/>
<path d="M39.1494 36.9421C39.1494 37.5415 38.9197 38.0796 38.5461 38.4727C38.3552 38.6738 38.1283 38.8333 37.8786 38.9419C37.6288 39.0505 37.361 39.1062 37.0907 39.1056H2.90929C2.63886 39.1059 2.37102 39.0501 2.12112 38.9415C1.87122 38.8329 1.64415 38.6735 1.45293 38.4726C1.2617 38.2716 1.11006 38.033 1.0067 37.7704C0.903338 37.5078 0.850278 37.2263 0.850558 36.9421V3.05677C0.850336 2.77256 0.903515 2.49109 1.00704 2.22853C1.11057 1.96597 1.26241 1.72747 1.45385 1.52671C1.6448 1.3256 1.87167 1.16611 2.12144 1.05741C2.37121 0.948702 2.63895 0.892925 2.90929 0.893279H37.0907C37.361 0.892986 37.6288 0.948791 37.8785 1.05749C38.1283 1.16619 38.3552 1.32565 38.5461 1.52671C38.7377 1.72713 38.8897 1.96541 38.9932 2.22782C39.0967 2.49023 39.1498 2.77158 39.1494 3.05565V36.9421ZM39.1468 0.894952C38.8771 0.610691 38.5567 0.385278 38.2038 0.231686C37.8509 0.0780941 37.4726 -0.000643839 37.0907 3.96496e-06H2.90929C2.52736 -0.000643839 2.14907 0.0780941 1.7962 0.231686C1.44333 0.385278 1.12285 0.610691 0.853211 0.894952C0.582409 1.17828 0.367611 1.5151 0.221181 1.88602C0.0747511 2.25694 -0.000417762 2.65464 1.74627e-06 3.05621V36.9416C1.74627e-06 37.7852 0.326322 38.5525 0.853211 39.1039C1.12291 39.3882 1.44337 39.6137 1.79621 39.7675C2.14905 39.9212 2.52732 40.0003 2.90929 40H37.0907C37.4727 40.0003 37.8509 39.9212 38.2038 39.7675C38.5566 39.6137 38.8771 39.3882 39.1468 39.1039C39.4175 38.8204 39.6323 38.4835 39.7787 38.1125C39.9251 37.7415 40.0003 37.3438 40 36.9421V3.05677C40.0003 2.65513 39.9251 2.25738 39.7787 1.88639C39.6323 1.51539 39.4175 1.17846 39.1468 0.894952Z" fill="#BBBBBB"/>
</svg>
