<svg width="20" height="20" viewBox="0 0 20 20" fill="none" xmlns="http://www.w3.org/2000/svg">
<path d="M6.44444 5.35828L2 10M2 10L6.44444 14.6417M2 10L12.6667 10M10 5.35828C10 5.08388 10 4.94668 10.0098 4.82783C10.1113 3.5926 10.9824 2.57617 12.1466 2.33441C12.2586 2.31115 12.3893 2.29598 12.6504 2.26569L13.5583 2.16033C14.9222 2.00206 15.6043 1.92291 16.1461 2.10399C16.8685 2.34543 17.4583 2.89675 17.7678 3.61997C18 4.16238 18 4.87903 18 6.31233V13.6877C18 15.121 18 15.8376 17.7678 16.38C17.4583 17.1032 16.8685 17.6546 16.1461 17.896C15.6043 18.0771 14.9223 17.9979 13.5583 17.8397L12.6504 17.7343C12.3892 17.704 12.2587 17.6889 12.1466 17.6656C10.9824 17.4238 10.1113 16.4074 10.0098 15.1722C10 15.0533 10 14.9161 10 14.6417" stroke="#8D8D8D" stroke-width="1.5" stroke-linecap="round" stroke-linejoin="round"/>
</svg>
