<svg width="20" height="20" viewBox="0 0 20 20" fill="none" xmlns="http://www.w3.org/2000/svg">
<path d="M4.66667 14.1981C4.66667 14.493 4.66667 14.6405 4.68059 14.7687C4.79622 15.8332 5.6112 16.7124 6.71294 16.9614C6.84564 16.9914 7.00045 17.0109 7.30994 17.0498L13.1694 17.7878C14.8374 17.9979 15.6713 18.1029 16.3186 17.8598C16.8869 17.6464 17.3603 17.2549 17.6593 16.751C18 16.1771 18 15.3824 18 13.793V6.20702C18 4.61759 18 3.82287 17.6593 3.24897C17.3603 2.7451 16.8869 2.35365 16.3186 2.14021C15.6713 1.89711 14.8374 2.00214 13.1694 2.21221L7.30994 2.95017C7.00041 2.98915 6.84564 3.00864 6.71294 3.03863C5.6112 3.28757 4.79622 4.16683 4.68059 5.23127C4.66667 5.35948 4.66667 5.50696 4.66667 5.80192M10 6.64153L13.5556 10M13.5556 10L10 13.3585M13.5556 10H2" stroke="#8D8D8D" stroke-width="1.5" stroke-linecap="round" stroke-linejoin="round"/>
</svg>
