<svg width="24" height="24" viewBox="0 0 24 24" fill="none" xmlns="http://www.w3.org/2000/svg">
<path d="M22.7361 12C22.7388 12.4553 22.6203 12.9032 22.3926 13.2975C22.1649 13.6919 21.8363 14.0185 21.4406 14.2438L5.15032 23.649C4.7573 23.8789 4.31019 24 3.85488 24C3.39958 24 2.95247 23.8789 2.55945 23.649C2.16376 23.4237 1.8352 23.0971 1.60752 22.7027C1.37985 22.3084 1.26127 21.8605 1.26396 21.4052V2.59481C1.26128 2.13948 1.37986 1.69163 1.60752 1.29729C1.83519 0.902944 2.16373 0.576315 2.5594 0.350956C2.95244 0.121127 3.39955 0 3.85486 0C4.31017 0 4.75728 0.121127 5.15032 0.350956L21.4406 9.75619C21.8363 9.98151 22.1649 10.3081 22.3926 10.7025C22.6202 11.0968 22.7388 11.5447 22.7361 12Z" fill="white"/>
</svg>
